<?xml version="1.0" encoding="UTF-8"?>
<!DOCTYPE svg PUBLIC "-//W3C//DTD SVG 1.1//EN" "http://www.w3.org/Graphics/SVG/1.1/DTD/svg11.dtd">
<!-- Creator: CorelDRAW X6 -->
<svg xmlns="http://www.w3.org/2000/svg" xml:space="preserve" width="12.7772in" height="7.07832in" version="1.1" style="shape-rendering:geometricPrecision; text-rendering:geometricPrecision; image-rendering:optimizeQuality; fill-rule:evenodd; clip-rule:evenodd"
viewBox="0 0 6389 3539"
 xmlns:xlink="http://www.w3.org/1999/xlink">
 <defs>
  <style type="text/css">
   <![CDATA[
    .fil0 {fill:#EBA54B}
    .fil1 {fill:#FDFDFD}
   ]]>
  </style>
 </defs>
 <g id="Layer_x0020_1">
  <metadata id="CorelCorpID_0Corel-Layer"/>
  <g id="_313261640">
   <path class="fil0" d="M1149 2926c274,152 64,132 526,-310 216,-207 416,-225 733,-92 597,250 1528,1495 2851,813 239,-123 420,-286 578,-433l239 -266c123,-157 123,-167 64,-370 -3,4 -6,5 -7,12l-26 83c-17,60 -111,165 -151,212 -879,1042 -1927,977 -2979,163 -168,-130 -361,-284 -597,-387 -533,-233 -799,129 -1070,477 -50,64 -56,43 -113,66l-50 32z"/>
   <path class="fil1" d="M4191 1390l204 5c50,-99 90,-376 138,-436l123 436 203 -1 235 -806 -212 0 -130 546c-58,-86 -99,-447 -159,-544 -173,-3 -122,-56 -205,261 -17,65 -53,237 -76,283l-141 -545 -205 -1 226 803z"/>
   <path class="fil1" d="M168 2205l324 -393c41,-47 87,-75 129,-124 124,-143 359,-308 562,-420 466,-257 1076,-311 1603,-92 243,101 448,210 646,337 431,278 869,781 1297,549 139,-75 444,-408 476,-502l-50 -30c-177,170 -385,685 -904,469 -159,-66 -638,-458 -873,-601 -204,-124 -413,-232 -663,-320 -677,-241 -1371,-56 -1898,344 -159,121 -195,172 -320,284l-176 203c-113,140 -198,206 -154,296z"/>
   <path class="fil1" d="M1041 2838c83,56 71,-39 224,-197 46,-47 61,-80 113,-126 35,-31 31,-33 61,-65 23,-25 41,-36 69,-58 226,-176 400,-263 745,-191 471,99 762,471 1232,733 614,342 1222,435 1858,9 271,-181 326,-248 525,-458 38,-40 218,-230 205,-278 -20,-76 -89,46 -107,68l-225 253c-67,64 -66,77 -129,124 -114,87 -127,113 -276,215 -658,452 -1224,341 -1857,-13 -105,-59 -196,-122 -290,-188 -105,-73 -182,-141 -277,-214 -402,-309 -984,-512 -1415,-140 -112,97 -153,138 -247,245 -48,55 -199,211 -211,280z"/>
   <path class="fil1" d="M1933 143l1 677 187 -1 1 -302c43,24 34,27 64,69 51,72 130,155 172,233l239 2 -131 -164c-43,-50 -95,-111 -129,-162 56,-66 98,-30 138,-152 29,-86 13,-181 -32,-240 -93,-121 -324,-87 -510,-90l0 130zm188 227c161,6 197,-60 147,-190 -38,-35 -87,-45 -142,-24l-4 214z"/>
   <path class="fil1" d="M1090 812l203 9 52 -159 300 -2 67 158 194 2 -319 -805 -179 -1 -318 797zm319 -315l175 -1 -81 -226 -94 227z"/>
   <path class="fil1" d="M4945 1394l207 0 53 -157 300 -3c19,26 6,3 22,38l48 119 193 3 -320 -805 -167 -1 -335 805zm332 -318l166 0 -78 -227 -88 227z"/>
   <path class="fil1" d="M85 579l-85 151c158,134 508,157 590,-41 135,-327 -354,-340 -337,-461 69,-122 166,-34 270,-12l59 -140c-97,-83 -277,-100 -390,-37 -135,75 -219,293 61,429 55,27 138,52 150,103 19,78 -74,104 -145,91 -74,-14 -116,-61 -174,-82z"/>
   <path class="fil1" d="M5911 1393l187 2c2,-281 -34,-317 73,-474 55,-81 187,-255 217,-334l-210 1 -170 251c-38,-37 -144,-203 -162,-252l-222 -1c64,194 288,341 289,523 1,94 -2,189 -2,283z"/>
   <path class="fil1" d="M513 2445c44,44 88,73 135,103 64,-51 267,-475 748,-745 40,-22 42,-20 66,-46l-73 -150c-236,62 -762,585 -876,838z"/>
   <path class="fil1" d="M2545 1700c58,40 196,85 268,125 165,90 643,427 725,462l93 -147c-78,-62 -167,-110 -243,-160 -187,-121 -595,-414 -792,-439l-50 160z"/>
   <polygon class="fil1" points="592,174 780,176 783,820 972,819 972,176 1162,173 1162,19 589,14 "/>
   <path class="fil1" d="M4637 2560l18 172c185,19 491,-177 589,-251 100,-76 360,-328 408,-438 -35,-32 -101,-85 -147,-99 -210,306 -487,541 -868,617z"/>
   <polygon class="fil1" points="2536,176 2726,175 2730,813 2916,819 2916,175 3102,175 3109,13 2536,14 "/>
  </g>
 </g>
</svg>
